<mxfile host="app.diagrams.net" agent="Mozilla/5.0 (Windows NT 10.0; Win64; x64) AppleWebKit/537.36 (KHTML, like Gecko) Chrome/137.0.0.0 Safari/537.36" version="27.0.9">
  <diagram name="Page-1" id="bh9CKL2Qu8Z18c2zeAcq">
    <mxGraphModel dx="1240" dy="750" grid="1" gridSize="10" guides="1" tooltips="1" connect="1" arrows="1" fold="1" page="1" pageScale="1" pageWidth="827" pageHeight="1169" math="0" shadow="0">
      <root>
        <mxCell id="0" />
        <mxCell id="1" parent="0" />
        <mxCell id="yEhn9rZgTwuoKpYQ3fsm-6" style="edgeStyle=orthogonalEdgeStyle;rounded=0;orthogonalLoop=1;jettySize=auto;html=1;entryX=0.5;entryY=0;entryDx=0;entryDy=0;" edge="1" parent="1" source="yEhn9rZgTwuoKpYQ3fsm-4" target="yEhn9rZgTwuoKpYQ3fsm-5">
          <mxGeometry relative="1" as="geometry" />
        </mxCell>
        <mxCell id="yEhn9rZgTwuoKpYQ3fsm-4" value="Urushi Run" style="rounded=0;whiteSpace=wrap;html=1;" vertex="1" parent="1">
          <mxGeometry x="160" y="120" width="120" height="60" as="geometry" />
        </mxCell>
        <mxCell id="yEhn9rZgTwuoKpYQ3fsm-8" style="edgeStyle=orthogonalEdgeStyle;rounded=0;orthogonalLoop=1;jettySize=auto;html=1;entryX=0.5;entryY=0;entryDx=0;entryDy=0;" edge="1" parent="1" source="yEhn9rZgTwuoKpYQ3fsm-5" target="yEhn9rZgTwuoKpYQ3fsm-7">
          <mxGeometry relative="1" as="geometry" />
        </mxCell>
        <mxCell id="yEhn9rZgTwuoKpYQ3fsm-5" value="Query scheduled_&lt;span style=&quot;background-color: transparent; color: light-dark(rgb(0, 0, 0), rgb(255, 255, 255));&quot;&gt;form_dispatches WHERE&amp;nbsp;&lt;/span&gt;&lt;span style=&quot;background-color: transparent; color: light-dark(rgb(0, 0, 0), rgb(255, 255, 255));&quot;&gt;sfd_scheduled_time&lt;/span&gt;&lt;br&gt;&lt;span style=&quot;background-color: transparent; color: light-dark(rgb(0, 0, 0), rgb(255, 255, 255));&quot;&gt;&amp;nbsp;&amp;lt;= NOW() AND status === &#39;pending&#39;&lt;br&gt;&lt;/span&gt;" style="rounded=1;whiteSpace=wrap;html=1;" vertex="1" parent="1">
          <mxGeometry x="120" y="240" width="200" height="90" as="geometry" />
        </mxCell>
        <mxCell id="yEhn9rZgTwuoKpYQ3fsm-10" style="edgeStyle=orthogonalEdgeStyle;rounded=0;orthogonalLoop=1;jettySize=auto;html=1;entryX=0.5;entryY=0;entryDx=0;entryDy=0;" edge="1" parent="1" source="yEhn9rZgTwuoKpYQ3fsm-7" target="yEhn9rZgTwuoKpYQ3fsm-9">
          <mxGeometry relative="1" as="geometry" />
        </mxCell>
        <mxCell id="yEhn9rZgTwuoKpYQ3fsm-11" value="Yes, for each" style="edgeLabel;html=1;align=center;verticalAlign=middle;resizable=0;points=[];" vertex="1" connectable="0" parent="yEhn9rZgTwuoKpYQ3fsm-10">
          <mxGeometry x="-0.3966" relative="1" as="geometry">
            <mxPoint as="offset" />
          </mxGeometry>
        </mxCell>
        <mxCell id="yEhn9rZgTwuoKpYQ3fsm-14" style="edgeStyle=orthogonalEdgeStyle;rounded=0;orthogonalLoop=1;jettySize=auto;html=1;entryX=1.009;entryY=0.584;entryDx=0;entryDy=0;entryPerimeter=0;" edge="1" parent="1" source="yEhn9rZgTwuoKpYQ3fsm-7" target="yEhn9rZgTwuoKpYQ3fsm-12">
          <mxGeometry relative="1" as="geometry">
            <mxPoint x="430" y="720" as="targetPoint" />
            <Array as="points">
              <mxPoint x="400" y="440" />
              <mxPoint x="400" y="820" />
              <mxPoint x="256" y="820" />
            </Array>
          </mxGeometry>
        </mxCell>
        <mxCell id="yEhn9rZgTwuoKpYQ3fsm-15" value="No" style="edgeLabel;html=1;align=center;verticalAlign=middle;resizable=0;points=[];" vertex="1" connectable="0" parent="yEhn9rZgTwuoKpYQ3fsm-14">
          <mxGeometry x="-0.6933" y="3" relative="1" as="geometry">
            <mxPoint x="-27" y="3" as="offset" />
          </mxGeometry>
        </mxCell>
        <mxCell id="yEhn9rZgTwuoKpYQ3fsm-7" value="Results?" style="rhombus;whiteSpace=wrap;html=1;" vertex="1" parent="1">
          <mxGeometry x="180" y="400" width="80" height="80" as="geometry" />
        </mxCell>
        <mxCell id="yEhn9rZgTwuoKpYQ3fsm-17" style="edgeStyle=orthogonalEdgeStyle;rounded=0;orthogonalLoop=1;jettySize=auto;html=1;" edge="1" parent="1" source="yEhn9rZgTwuoKpYQ3fsm-9" target="yEhn9rZgTwuoKpYQ3fsm-16">
          <mxGeometry relative="1" as="geometry" />
        </mxCell>
        <mxCell id="yEhn9rZgTwuoKpYQ3fsm-9" value="Generate key and send forms" style="rounded=1;whiteSpace=wrap;html=1;" vertex="1" parent="1">
          <mxGeometry x="135" y="540" width="170" height="70" as="geometry" />
        </mxCell>
        <mxCell id="yEhn9rZgTwuoKpYQ3fsm-12" value="" style="verticalLabelPosition=bottom;verticalAlign=top;html=1;shape=mxgraph.flowchart.or;" vertex="1" parent="1">
          <mxGeometry x="185" y="780" width="70" height="70" as="geometry" />
        </mxCell>
        <mxCell id="yEhn9rZgTwuoKpYQ3fsm-18" style="edgeStyle=orthogonalEdgeStyle;rounded=0;orthogonalLoop=1;jettySize=auto;html=1;" edge="1" parent="1" source="yEhn9rZgTwuoKpYQ3fsm-16" target="yEhn9rZgTwuoKpYQ3fsm-12">
          <mxGeometry relative="1" as="geometry" />
        </mxCell>
        <mxCell id="yEhn9rZgTwuoKpYQ3fsm-16" value="Update sfd_status to sent" style="rounded=1;whiteSpace=wrap;html=1;" vertex="1" parent="1">
          <mxGeometry x="160" y="670" width="120" height="60" as="geometry" />
        </mxCell>
      </root>
    </mxGraphModel>
  </diagram>
</mxfile>
